<svg width="24" height="24" viewBox="0 0 24 24" fill="none" xmlns="http://www.w3.org/2000/svg">
<rect width="24" height="24" fill="#E7E7E7"/>
<g id="Health">
<path d="M-212 -458C-212 -459.105 -211.105 -460 -210 -460H1286C1287.1 -460 1288 -459.105 1288 -458V1038C1288 1039.1 1287.1 1040 1286 1040H-210C-211.105 1040 -212 1039.1 -212 1038V-458Z" fill="white"/>
<path d="M-210 -460V-459H1286V-460V-461H-210V-460ZM1288 -458H1287V1038H1288H1289V-458H1288ZM1286 1040V1039H-210V1040V1041H1286V1040ZM-212 1038H-211V-458H-212H-213V1038H-212ZM-210 1040V1039C-210.552 1039 -211 1038.55 -211 1038H-212H-213C-213 1039.66 -211.657 1041 -210 1041V1040ZM1288 1038H1287C1287 1038.55 1286.55 1039 1286 1039V1040V1041C1287.66 1041 1289 1039.66 1289 1038H1288ZM1286 -460V-459C1286.55 -459 1287 -458.552 1287 -458H1288H1289C1289 -459.657 1287.66 -461 1286 -461V-460ZM-210 -460V-461C-211.657 -461 -213 -459.657 -213 -458H-212H-211C-211 -458.552 -210.552 -459 -210 -459V-460Z" fill="black" fill-opacity="0.1"/>
<g id="Icon_Healthcare-Service">
<rect x="-19.5" y="-55.5" width="71" height="151" rx="4.5" stroke="#8A38F5" stroke-dasharray="10 5"/>
<g id="Size=M">
<g id=".Patient-Care--Streamline-Ultimate">
<path id="Vector" d="M2.4043 13.9414V21.6186" stroke="#111111" stroke-width="1.5" stroke-linecap="round" stroke-linejoin="round"/>
<path id="Vector_2" d="M2.4043 20.3389H16.4792C16.4792 19.6601 16.2096 19.0092 15.7297 18.5293C15.2497 18.0494 14.5988 17.7798 13.9201 17.7798H10.7213C10.7213 17.1011 10.4517 16.4502 9.97175 15.9702C9.49183 15.4903 8.84092 15.2207 8.16221 15.2207H2.4043" stroke="#111111" stroke-width="1.5" stroke-linecap="round" stroke-linejoin="round"/>
<path id="Vector_3" d="M7.52148 17.7793H10.7203" stroke="#111111" stroke-width="1.5" stroke-linecap="round" stroke-linejoin="round"/>
<path id="Vector_4" d="M9.16406 4.96321C9.16406 5.64758 9.43593 6.30391 9.91984 6.78783C10.4038 7.27175 11.0601 7.54361 11.7445 7.54361C12.4288 7.54361 13.0852 7.27175 13.5691 6.78783C14.053 6.30391 14.3249 5.64758 14.3249 4.96321C14.3249 4.62435 14.2581 4.2888 14.1284 3.97574C13.9988 3.66267 13.8087 3.37821 13.5691 3.13859C13.3295 2.89898 13.045 2.70891 12.7319 2.57923C12.4189 2.44956 12.0833 2.38281 11.7445 2.38281C11.4056 2.38281 11.0701 2.44956 10.757 2.57923C10.4439 2.70891 10.1595 2.89898 9.91984 3.13859C9.68023 3.37821 9.49016 3.66267 9.36048 3.97574C9.23081 4.2888 9.16406 4.62435 9.16406 4.96321Z" stroke="#111111" stroke-width="1.5" stroke-linecap="round" stroke-linejoin="round"/>
<path id="Vector_5" d="M7.52148 12.7029C7.52148 11.5831 7.96635 10.5091 8.75822 9.7172C9.55008 8.92533 10.6241 8.48047 11.744 8.48047C12.8638 8.48047 13.9378 8.92533 14.7297 9.7172C15.5216 10.5091 15.9664 11.5831 15.9664 12.7029" stroke="#111111" stroke-width="1.5" stroke-linecap="round" stroke-linejoin="round"/>
<path id="Vector_6" d="M16.0312 6.36905C16.0313 6.92898 16.2537 7.46598 16.6496 7.86192C17.0455 8.25785 17.5826 8.48028 18.1425 8.48028C18.7024 8.48028 19.2394 8.25785 19.6354 7.86192C20.0313 7.46598 20.2537 6.92898 20.2537 6.36905C20.2537 5.80911 20.0313 5.27211 19.6354 4.87618C19.2394 4.48025 18.7024 4.25781 18.1425 4.25781C17.5826 4.25781 17.0455 4.48025 16.6496 4.87618C16.2537 5.27211 16.0312 5.80911 16.0312 6.36905Z" stroke="#111111" stroke-width="1.5" stroke-linecap="round" stroke-linejoin="round"/>
<path id="Vector_7" d="M16.9473 9.46154C17.4697 9.26889 18.0308 9.20529 18.5831 9.27615C19.1353 9.34701 19.6623 9.55023 20.1191 9.86852C20.576 10.1868 20.9491 10.6107 21.2069 11.1043C21.4647 11.5978 21.5994 12.1463 21.5997 12.703" stroke="#111111" stroke-width="1.5" stroke-linecap="round" stroke-linejoin="round"/>
</g>
</g>
</g>
</g>
</svg>
