<svg width="24" height="24" viewBox="0 0 24 24" fill="none" xmlns="http://www.w3.org/2000/svg">
<rect width="24" height="24" fill="#E7E7E7"/>
<g id="Health">
<path d="M-672 -286C-672 -287.105 -671.105 -288 -670 -288H826C827.104 -288 828 -287.105 828 -286V1210C828 1211.1 827.105 1212 826 1212H-670C-671.105 1212 -672 1211.1 -672 1210V-286Z" fill="white"/>
<path d="M-670 -288V-287H826V-288V-289H-670V-288ZM828 -286H827V1210H828H829V-286H828ZM826 1212V1211H-670V1212V1213H826V1212ZM-672 1210H-671V-286H-672H-673V1210H-672ZM-670 1212V1211C-670.552 1211 -671 1210.55 -671 1210H-672H-673C-673 1211.66 -671.657 1213 -670 1213V1212ZM828 1210H827C827 1210.55 826.552 1211 826 1211V1212V1213C827.657 1213 829 1211.66 829 1210H828ZM826 -288V-287C826.552 -287 827 -286.552 827 -286H828H829C829 -287.657 827.657 -289 826 -289V-288ZM-670 -288V-289C-671.657 -289 -673 -287.657 -673 -286H-672H-671C-671 -286.552 -670.552 -287 -670 -287V-288Z" fill="black" fill-opacity="0.1"/>
<g id="Icon_Sleep">
<rect x="-19.5" y="-55.5" width="71" height="151" rx="4.5" stroke="#8A38F5" stroke-dasharray="10 5"/>
<g id="Size=M">
<g id="Sleep">
<path id="Vector" d="M10.021 7.43428C9.62416 5.85357 9.66361 4.19483 10.1351 2.63477C8.64804 3.08704 7.30346 3.91672 6.23231 5.04301C5.16116 6.1693 4.39995 7.55381 4.02283 9.06168C3.64571 10.5695 3.66553 12.1494 4.08036 13.6473C4.49518 15.1453 5.29088 16.5102 6.38995 17.6093C7.48901 18.7084 8.85398 19.5041 10.3519 19.9189C11.8499 20.3337 13.4297 20.3535 14.9376 19.9764C16.4454 19.5993 17.8299 18.8381 18.9562 17.7669C20.0825 16.6958 20.9122 15.3512 21.3645 13.8641C19.8044 14.3356 18.1457 14.3751 16.565 13.9783" stroke="#111111" stroke-width="1.5" stroke-linecap="round" stroke-linejoin="round"/>
<path id="Vector_2" d="M15.873 4.53516H19.623L15.873 8.28516H19.623" stroke="#111111" stroke-width="1.5" stroke-linecap="round" stroke-linejoin="round"/>
<path id="Vector_3" d="M12.123 9.41016H14.373L12.123 11.6602H14.373" stroke="#111111" stroke-width="1.5" stroke-linecap="round" stroke-linejoin="round"/>
</g>
</g>
</g>
</g>
</svg>
